Coordinates
version=1
nRows=11
nColumns=63
inDegrees=yes

Units are S.I. units (second, meters, Newtons, ...)
If the header above contains a line with 'inDegrees', this indicates whether rotational values are in degrees (yes) or radians (no).

endheader
time	pelvis_tilt	pelvis_list	pelvis_rotation	pelvis_tx	pelvis_ty	pelvis_tz	hip_flexion_r	hip_adduction_r	hip_rotation_r	knee_angle_r	knee_angle_r_beta	ankle_angle_r	subtalar_angle_r	mtp_angle_r	hip_flexion_l	hip_adduction_l	hip_rotation_l	knee_angle_l	knee_angle_l_beta	ankle_angle_l	subtalar_angle_l	mtp_angle_l	L5_S1_Flex_Ext	L5_S1_Lat_Bending	L5_S1_axial_rotation	L4_L5_Flex_Ext	L4_L5_Lat_Bending	L4_L5_axial_rotation	L3_L4_Flex_Ext	L3_L4_Lat_Bending	L3_L4_axial_rotation	L2_L3_Flex_Ext	L2_L3_Lat_Bending	L2_L3_axial_rotation	L1_L2_Flex_Ext	L1_L2_Lat_Bending	L1_L2_axial_rotation	L1_T12_Flex_Ext	L1_T12_Lat_Bending	L1_T12_axial_rotation	Abs_r3	Abs_r2	Abs_r1	Abs_t1	Abs_t2	neck_flexion	neck_bending	neck_rotation	arm_flex_r	arm_add_r	arm_rot_r	elbow_flex_r	pro_sup_r	wrist_flex_r	wrist_dev_r	arm_flex_l	arm_add_l	arm_rot_l	elbow_flex_l	pro_sup_l	wrist_flex_l	wrist_dev_l
      7.50000000	    -56.69826973	     -7.62284700	      3.87238726	     -0.28059861	      1.06591674	     -0.03650255	    104.67774621	     -9.28212049	    -10.69029386	     58.53118333	      1.02156186	      7.45609599	     -1.20782028	      0.00000000	    110.85923163	      0.17149002	      9.44069836	     97.97474679	      1.70998192	     10.05348527	     -5.00246429	      0.00000000	     -0.09252675	      1.20663053	     -0.68283122	     -0.17183142	      1.60481861	     -0.72550817	     -0.15201219	      2.93380148	     -0.72550817	     -0.10574882	      2.93380148	     -0.59747732	     -0.08592034	      2.46056099	     -0.55480037	     -0.05286978	      1.86907070	     -0.51212342	     -0.66090929	     13.64964594	     -3.79770240	      0.00000000	      0.00000000	     -0.00000000	      0.00000000	      0.00000000	     63.59250593	    -14.07852640	     21.57343246	     41.96134920	     24.13522480	      0.00000000	      5.00000014	     58.54793099	    -11.14389421	      6.99618409	     46.27836650	     31.88341910	      0.00000000	      5.00000014
      7.50800000	    -56.65739166	     -7.32410689	      3.94321597	     -0.27983520	      1.06549408	     -0.03669605	    103.56302084	     -9.20965058	    -10.83585328	     57.02595227	      0.99529063	      6.78936653	     -1.00386979	      0.00000000	    111.82400930	      0.08667988	      9.06157042	     99.42486206	      1.73529120	     10.59381400	     -5.11351055	      0.00000000	     -0.09370230	      1.16529843	     -0.71281806	     -0.17401454	      1.54984692	     -0.75736919	     -0.15394350	      2.83330661	     -0.75736919	     -0.10709236	      2.83330661	     -0.62371581	     -0.08701195	      2.37627657	     -0.57916468	     -0.05354149	      1.80504727	     -0.53461355	     -0.66930614	     13.18208894	     -3.96448022	      0.00000000	      0.00000000	     -0.00000000	      0.00000000	      0.00000000	     63.42082926	    -13.97259076	     21.53705206	     42.05298803	     24.11043495	      0.00000000	      5.00000014	     58.50243965	    -11.28271625	      7.07274461	     46.30733010	     31.87828618	      0.00000000	      5.00000014
      7.51700000	    -56.60724849	     -7.05163593	      3.81937146	     -0.27889999	      1.06490134	     -0.03650953	    102.41424493	     -8.89679563	    -10.97985344	     55.51124120	      0.96885393	      6.08223850	     -0.74333247	      0.00000000	    112.85804359	     -0.21507547	      8.72390062	    100.93120190	      1.76158179	     11.06549241	     -5.20983298	      0.00000000	     -0.09383662	      1.12505323	     -0.70594316	     -0.17426399	      1.49632080	     -0.75006460	     -0.15416418	      2.73545443	     -0.75006460	     -0.10724587	      2.73545443	     -0.61770026	     -0.08713669	      2.29420855	     -0.57357881	     -0.05361824	      1.74270746	     -0.52945737	     -0.67026560	     12.72682718	     -3.92624405	      0.00000000	      0.00000000	     -0.00000000	      0.00000000	      0.00000000	     63.20421842	    -13.87374466	     21.43737208	     42.10701257	     24.07549147	      0.00000000	      5.00000014	     58.45469189	    -11.41706735	      7.24387563	     46.35414879	     31.88264237	      0.00000000	      5.00000014
      7.52500000	    -56.53426755	     -6.78675923	      3.68930665	     -0.27791081	      1.06418861	     -0.03629477	    101.26131284	     -8.56374664	    -11.06612539	     54.05423326	      0.94342435	      5.38131662	     -0.49430037	      0.00000000	    113.91454399	     -0.52952487	      8.38270604	    102.40361349	      1.78728022	     11.38775618	     -5.22769439	      0.00000000	     -0.09334673	      1.08532235	     -0.69616383	     -0.17335421	      1.44347873	     -0.73967407	     -0.15335935	      2.63885277	     -0.73967407	     -0.10668598	      2.63885277	     -0.60914335	     -0.08668177	      2.21318934	     -0.56563311	     -0.05333832	      1.68116432	     -0.52212287	     -0.66676637	     12.27738351	     -3.87185437	      0.00000000	      0.00000000	     -0.00000000	      0.00000000	      0.00000000	     62.97900310	    -13.77524284	     21.28985954	     42.14456304	     24.03397945	      0.00000000	      5.00000014	     58.41283813	    -11.55017259	      7.48024540	     46.35751886	     31.89307674	      0.00000000	      5.00000014
      7.53300000	    -56.44808959	     -6.54114893	      3.55403581	     -0.27690343	      1.06340222	     -0.03599975	    100.11426155	     -8.20322510	    -11.09525877	     52.64854988	      0.91889054	      4.68613995	     -0.28618353	      0.00000000	    115.00330520	     -0.87427740	      8.04213608	    103.83017043	      1.81217834	     11.58085119	     -5.16630345	      0.00000000	     -0.09298807	      1.04573389	     -0.68001624	     -0.17268814	      1.39082607	     -0.72251725	     -0.15277010	      2.54259737	     -0.72251725	     -0.10627606	      2.54259737	     -0.59501421	     -0.08634872	      2.13246054	     -0.55251319	     -0.05313338	      1.61984179	     -0.51001218	     -0.66420448	     11.82955089	     -3.78204632	      0.00000000	      0.00000000	     -0.00000000	      0.00000000	      0.00000000	     62.72711857	    -13.68911266	     21.07759885	     42.13731358	     23.98028406	      0.00000000	      5.00000014	     58.40240068	    -11.67320119	      7.80445165	     46.34925286	     31.91081218	      0.00000000	      5.00000014
      7.54200000	    -56.34427784	     -6.29879945	      3.43289948	     -0.27590392	      1.06254710	     -0.03575106	     98.96972236	     -7.84538406	    -11.07759086	     51.29183712	      0.89521144	      3.99600448	     -0.15410530	      0.00000000	    116.09956693	     -1.18884268	      7.69808808	    105.21445947	      1.83633874	     11.68513025	     -5.04816648	      0.00000000	     -0.09237033	      1.00654030	     -0.66461672	     -0.17154094	      1.33869860	     -0.70615526	     -0.15175521	      2.44730209	     -0.70615526	     -0.10557005	      2.44730209	     -0.58153963	     -0.08577509	      2.05253698	     -0.54000108	     -0.05278041	      1.55913093	     -0.49846254	     -0.65979201	     11.38618520	     -3.69639879	      0.00000000	      0.00000000	     -0.00000000	      0.00000000	      0.00000000	     62.46584803	    -13.59515859	     20.81156428	     42.10829012	     23.91466466	      0.00000000	      5.00000014	     58.40735649	    -11.81356547	      8.20332425	     46.30746729	     31.93362341	      0.00000000	      5.00000014
      7.55000000	    -56.22870894	     -6.08013594	      3.44782377	     -0.27498883	      1.06172190	     -0.03565587	     97.83583186	     -7.63158240	    -11.05962482	     50.01735942	      0.87296761	      3.38844010	     -0.08729192	      0.00000000	    117.16558912	     -1.36448653	      7.30828945	    106.47518966	      1.85834263	     11.77330049	     -4.95408631	      0.00000000	     -0.09208837	      0.96855634	     -0.68080171	     -0.17101731	      1.28817993	     -0.72335182	     -0.15129198	      2.35494788	     -0.72335182	     -0.10524780	      2.35494788	     -0.59570149	     -0.08551326	      1.97508008	     -0.55315139	     -0.05261929	      1.50029377	     -0.51060128	     -0.65777800	     10.95650300	     -3.78641486	      0.00000000	      0.00000000	     -0.00000000	      0.00000000	      0.00000000	     62.24225744	    -13.48242826	     20.62043032	     42.08878679	     23.86467032	      0.00000000	      5.00000014	     58.41739910	    -11.97868641	      8.51141771	     46.22897985	     31.95101310	      0.00000000	      5.00000014
      7.55800000	    -56.11702527	     -5.90764374	      3.23321792	     -0.27409445	      1.06081254	     -0.03520809	     96.74625973	     -7.15330080	    -10.99467569	     48.79786114	      0.85168334	      2.52063523	     -0.33083463	      0.00000000	    118.29585657	     -1.73074549	      7.07510166	    107.75290947	      1.88064305	     11.80862515	     -4.79658653	      0.00000000	     -0.09059339	      0.93563531	     -0.63946053	     -0.16824098	      1.24439496	     -0.67942681	     -0.14883587	      2.27490369	     -0.67942681	     -0.10353918	      2.27490369	     -0.55952796	     -0.08412502	      1.90794752	     -0.51956168	     -0.05176506	      1.44929909	     -0.47959540	     -0.64709950	     10.58409373	     -3.55648764	      0.00000000	      0.00000000	     -0.00000000	      0.00000000	      0.00000000	     61.92876785	    -13.39598189	     20.09837477	     42.08492947	     23.71616878	      0.00000000	      5.00000014	     58.50505508	    -12.17335640	      9.26513067	     46.08475914	     31.98268355	      0.00000000	      5.00000014
      7.56700000	    -56.00596301	     -5.71584589	      3.40162220	     -0.27340104	      1.06017071	     -0.03542545	     95.65071619	     -7.14345598	    -11.00297019	     47.65120319	      0.83167039	      2.05633512	     -0.31653735	      0.00000000	    119.31499478	     -1.73741699	      6.57752865	    108.74425301	      1.89794526	     11.92765028	     -4.77263166	      0.00000000	     -0.09147082	      0.90142130	     -0.67872711	     -0.16987046	      1.19889033	     -0.72114756	     -0.15027741	      2.19171575	     -0.72114756	     -0.10454200	      2.19171575	     -0.59388622	     -0.08493981	      1.83817831	     -0.55146578	     -0.05226643	      1.39630159	     -0.50904534	     -0.65336694	     10.19705801	     -3.77487659	      0.00000000	      0.00000000	     -0.00000000	      0.00000000	      0.00000000	     61.75216021	    -13.32289662	     20.04103048	     42.01916228	     23.68627473	      0.00000000	      5.00000014	     58.50314591	    -12.28558609	      9.39342647	     46.04637182	     31.98563882	      0.00000000	      5.00000014
      7.57500000	    -55.91820450	     -5.57497270	      3.41907121	     -0.27278227	      1.05960530	     -0.03549063	     94.57213669	     -6.99010021	    -11.03948707	     46.51073094	      0.81176539	      1.52162800	     -0.32625306	      0.00000000	    120.36902009	     -1.85560954	      6.17359956	    109.67258415	      1.91414769	     11.98738107	     -4.77481039	      0.00000000	     -0.09175800	      0.87511723	     -0.68195922	     -0.17040378	      1.16390592	     -0.72458167	     -0.15074921	      2.12776004	     -0.72458167	     -0.10487021	      2.12776004	     -0.59671432	     -0.08520648	      1.78453906	     -0.55409187	     -0.05243052	      1.35555660	     -0.51146942	     -0.65541820	      9.89950118	     -3.79285260	      0.00000000	      0.00000000	     -0.00000000	      0.00000000	      0.00000000	     61.60004021	    -13.28583805	     19.92062621	     41.92979856	     23.64597856	      0.00000000	      5.00000014	     58.49856206	    -12.37695815	      9.60975691	     46.03365695	     31.99736969	      0.00000000	      5.00000014
      7.58300000	    -55.84171592	     -5.46861632	      3.40365321	     -0.27224201	      1.05913390	     -0.03550927	     93.54069735	     -6.82417727	    -11.09817997	     45.48237507	      0.79381720	      0.95283706	     -0.36552277	      0.00000000	    121.41241619	     -1.98335881	      5.79835373	    110.48549850	      1.92833572	     12.04777331	     -4.78977865	      0.00000000	     -0.09143130	      0.85335709	     -0.67662539	     -0.16979707	      1.13496492	     -0.71891448	     -0.15021248	      2.07485242	     -0.71891448	     -0.10449683	      2.07485242	     -0.59204722	     -0.08490310	      1.74016577	     -0.54975813	     -0.05224384	      1.32185013	     -0.50746904	     -0.65308463	      9.65334602	     -3.76318744	      0.00000000	      0.00000000	     -0.00000000	      0.00000000	      0.00000000	     61.43652585	    -13.26707008	     19.77017444	     41.86817350	     23.64051404	      0.00000000	      5.00000014	     58.48450546	    -12.45974698	      9.83408615	     46.03086800	     32.03028322	      0.00000000	      5.00000014
